<svg xmlns="http://www.w3.org/2000/svg" version="1.1" xmlns:xlink="http://www.w3.org/1999/xlink" xmlns:svgjs="http://svgjs.dev/svgjs" viewBox="0 0 22.31193089054759 3.6345554068033863"><g transform="matrix(1,0,0,1,0.68773125006493,0.7029679034016934)"><rect width="22.31193089054759" height="22.31193089054759" x="-0.68773125006493" y="-10.041655645273796" fill="rgba(0,0,0,0)"></rect><g><path d=" M 0.410508 0.017919000000000018 L 0.410508 1.166364 L 0.091224 1.166364 L 0.091224 0.017919000000000018 L 0.410508 0.017919000000000018 M 1.9498859560546875 0.017919000000000018 L 1.9498859560546875 1.166364 L 1.6306019560546876 1.166364 L 1.6306019560546876 0.5326829999999999 L 1.4139449560546875 1.166364 L 1.1467889560546873 1.166364 L 0.9285029560546875 0.5277959999999999 L 0.9285029560546875 1.166364 L 0.6092189560546875 1.166364 L 0.6092189560546875 0.017919000000000018 L 0.9952919560546876 0.017919000000000018 L 1.2836249560546875 0.7640009999999999 L 1.5654419560546875 0.017919000000000018 L 1.9498859560546875 0.017919000000000018 M 2.875153979003906 0.9790289999999999 L 2.467903979003906 0.9790289999999999 L 2.406001979003906 1.166364 L 2.070427979003906 1.166364 L 2.489080979003906 0.017919000000000018 L 2.857234979003906 0.017919000000000018 L 3.274258979003906 1.166364 L 2.937055979003906 1.166364 L 2.875153979003906 0.9790289999999999 M 2.795332979003906 0.734679 L 2.671528979003906 0.3632669999999999 L 2.549353979003906 0.734679 L 2.795332979003906 0.734679 M 4.127862933105469 0.39584699999999995 Q 4.100169933105469 0.35023499999999996 4.052114433105469 0.3258 Q 4.004058933105469 0.301365 3.938898933105469 0.301365 Q 3.818352933105469 0.301365 3.749120433105469 0.3795569999999999 Q 3.679887933105469 0.45774899999999996 3.679887933105469 0.5896979999999999 Q 3.679887933105469 0.737937 3.754007433105469 0.8153144999999999 Q 3.828126933105469 0.8926919999999999 3.969849933105469 0.8926919999999999 Q 4.137636933105469 0.8926919999999999 4.209312933105469 0.7411949999999999 L 3.888399933105469 0.7411949999999999 L 3.888399933105469 0.5115059999999999 L 4.484613933105469 0.5115059999999999 L 4.484613933105469 0.821016 Q 4.4471469331054685 0.9122399999999999 4.374656433105469 0.992061 Q 4.302165933105469 1.071882 4.191393933105469 1.1231955 Q 4.080621933105469 1.174509 3.938898933105469 1.174509 Q 3.7662249331054687 1.174509 3.633461433105469 1.1003895 Q 3.500697933105469 1.02627 3.428207433105469 0.8935065 Q 3.355716933105469 0.760743 3.355716933105469 0.5896979999999999 Q 3.355716933105469 0.42028199999999993 3.428207433105469 0.2875184999999999 Q 3.500697933105469 0.15475499999999998 3.6326469331054687 0.08063549999999986 Q 3.764595933105469 0.006515999999999966 3.937269933105469 0.006515999999999966 Q 4.153926933105469 0.006515999999999966 4.2956499331054685 0.11077199999999987 Q 4.437372933105469 0.215028 4.471581933105469 0.39584699999999995 L 4.127862933105469 0.39584699999999995 M 4.963570954101563 0.2736719999999999 L 4.963570954101563 0.46100699999999994 L 5.330095954101563 0.46100699999999994 L 5.330095954101563 0.7037279999999999 L 4.963570954101563 0.7037279999999999 L 4.963570954101563 0.910611 L 5.378965954101563 0.910611 L 5.378965954101563 1.166364 L 4.644286954101563 1.166364 L 4.644286954101563 0.017919000000000018 L 5.378965954101563 0.017919000000000018 L 5.378965954101563 0.2736719999999999 L 4.963570954101563 0.2736719999999999 M 6.446732501953126 0.6768494999999999 Q 6.506191001953126 0.754227 6.506191001953126 0.853596 Q 6.506191001953126 1.000206 6.405193001953125 1.083285 Q 6.304195001953126 1.166364 6.121747001953126 1.166364 L 5.553226001953126 1.166364 L 5.553226001953126 0.017919000000000018 L 6.103828001953126 0.017919000000000018 Q 6.279760001953125 0.017919000000000018 6.379943501953125 0.09611099999999984 Q 6.480127001953125 0.17430299999999999 6.480127001953125 0.3160259999999999 Q 6.480127001953125 0.41702399999999995 6.427184501953126 0.4846275 Q 6.374242001953125 0.5522309999999999 6.286276001953126 0.5766659999999999 Q 6.387274001953125 0.5994719999999999 6.446732501953126 0.6768494999999999 M 5.872510001953126 0.474039 L 6.033781001953126 0.474039 Q 6.154327001953126 0.474039 6.154327001953126 0.37466999999999995 Q 6.154327001953126 0.2720429999999999 6.033781001953126 0.2720429999999999 L 5.872510001953126 0.2720429999999999 L 5.872510001953126 0.474039 M 6.1787620019531255 0.8079839999999999 Q 6.1787620019531255 0.755856 6.146996501953126 0.7281629999999999 Q 6.115231001953125 0.7004699999999999 6.056587001953126 0.7004699999999999 L 5.872510001953126 0.7004699999999999 L 5.872510001953126 0.908982 L 6.0582160019531255 0.908982 Q 6.1787620019531255 0.908982 6.1787620019531255 0.8079839999999999 M 7.395658409179688 0.39584699999999995 Q 7.367965409179688 0.35023499999999996 7.319909909179689 0.3258 Q 7.271854409179689 0.301365 7.206694409179688 0.301365 Q 7.086148409179689 0.301365 7.016915909179689 0.3795569999999999 Q 6.947683409179689 0.45774899999999996 6.947683409179689 0.5896979999999999 Q 6.947683409179689 0.737937 7.021802909179688 0.8153144999999999 Q 7.095922409179688 0.8926919999999999 7.237645409179688 0.8926919999999999 Q 7.405432409179689 0.8926919999999999 7.477108409179689 0.7411949999999999 L 7.156195409179689 0.7411949999999999 L 7.156195409179689 0.5115059999999999 L 7.7524094091796885 0.5115059999999999 L 7.7524094091796885 0.821016 Q 7.714942409179688 0.9122399999999999 7.642451909179688 0.992061 Q 7.5699614091796885 1.071882 7.459189409179689 1.1231955 Q 7.348417409179689 1.174509 7.206694409179688 1.174509 Q 7.034020409179688 1.174509 6.901256909179688 1.1003895 Q 6.768493409179689 1.02627 6.696002909179689 0.8935065 Q 6.623512409179688 0.760743 6.623512409179688 0.5896979999999999 Q 6.623512409179688 0.42028199999999993 6.696002909179689 0.2875184999999999 Q 6.768493409179689 0.15475499999999998 6.900442409179688 0.08063549999999986 Q 7.032391409179689 0.006515999999999966 7.205065409179689 0.006515999999999966 Q 7.421722409179688 0.006515999999999966 7.563445409179688 0.11077199999999987 Q 7.705168409179689 0.215028 7.7393774091796885 0.39584699999999995 L 7.395658409179688 0.39584699999999995 M 8.493635430175782 1.166364 L 8.265575430175783 0.7428239999999999 L 8.231366430175783 0.7428239999999999 L 8.231366430175783 1.166364 L 7.912082430175783 1.166364 L 7.912082430175783 0.017919000000000018 L 8.415443430175783 0.017919000000000018 Q 8.553908430175783 0.017919000000000018 8.650019430175782 0.06597450000000005 Q 8.746130430175782 0.11402999999999985 8.795000430175783 0.19792349999999992 Q 8.843870430175782 0.281817 8.843870430175782 0.386073 Q 8.843870430175782 0.503361 8.779524930175782 0.5921415 Q 8.715179430175782 0.680922 8.591375430175782 0.7183889999999999 L 8.850386430175782 1.166364 L 8.493635430175782 1.166364 M 8.231366430175783 0.524538 L 8.389379430175783 0.524538 Q 8.454539430175782 0.524538 8.487119430175783 0.493587 Q 8.519699430175782 0.46263599999999994 8.519699430175782 0.4039919999999999 Q 8.519699430175782 0.34860599999999997 8.486304930175782 0.31684049999999997 Q 8.452910430175782 0.28507499999999997 8.389379430175783 0.28507499999999997 L 8.231366430175783 0.28507499999999997 L 8.231366430175783 0.524538 M 9.32444292919922 0.2736719999999999 L 9.32444292919922 0.46100699999999994 L 9.69096792919922 0.46100699999999994 L 9.69096792919922 0.7037279999999999 L 9.32444292919922 0.7037279999999999 L 9.32444292919922 0.910611 L 9.73983792919922 0.910611 L 9.73983792919922 1.166364 L 9.00515892919922 1.166364 L 9.00515892919922 0.017919000000000018 L 9.73983792919922 0.017919000000000018 L 9.73983792919922 0.2736719999999999 L 9.32444292919922 0.2736719999999999 M 11.254764977050783 0.017919000000000018 L 11.254764977050783 1.166364 L 10.935480977050783 1.166364 L 10.935480977050783 0.5326829999999999 L 10.718823977050782 1.166364 L 10.451667977050782 1.166364 L 10.233381977050783 0.5277959999999999 L 10.233381977050783 1.166364 L 9.914097977050783 1.166364 L 9.914097977050783 0.017919000000000018 L 10.300170977050783 0.017919000000000018 L 10.588503977050783 0.7640009999999999 L 10.870320977050783 0.017919000000000018 L 11.254764977050783 0.017919000000000018 M 11.707623000000002 1.1020185 Q 11.572416000000002 1.02627 11.493409500000002 0.8918774999999999 Q 11.414403000000002 0.757485 11.414403000000002 0.588069 Q 11.414403000000002 0.41865299999999994 11.493409500000002 0.2842604999999999 Q 11.572416000000002 0.1498679999999999 11.707623000000002 0.07493399999999983 Q 11.842830000000003 0 12.004101000000002 0 Q 12.167001000000003 0 12.301393500000001 0.07493399999999983 Q 12.435786000000002 0.1498679999999999 12.513978000000002 0.2842604999999999 Q 12.592170000000003 0.41865299999999994 12.592170000000003 0.588069 Q 12.592170000000003 0.757485 12.513978000000002 0.8918774999999999 Q 12.435786000000002 1.02627 12.300579000000003 1.1020185 Q 12.165372000000001 1.177767 12.004101000000002 1.177767 Q 11.842830000000003 1.177767 11.707623000000002 1.1020185 M 12.197137500000002 0.801468 Q 12.267999000000001 0.7216469999999999 12.267999000000001 0.588069 Q 12.267999000000001 0.451233 12.197137500000002 0.3722264999999999 Q 12.126276000000002 0.2932199999999999 12.004101000000002 0.2932199999999999 Q 11.880297000000002 0.2932199999999999 11.810250000000002 0.3722264999999999 Q 11.740203000000003 0.451233 11.740203000000003 0.588069 Q 11.740203000000003 0.723276 11.810250000000002 0.8022825 Q 11.880297000000002 0.881289 12.004101000000002 0.881289 Q 12.126276000000002 0.881289 12.197137500000002 0.801468 M 13.869285319335939 0.017919000000000018 L 13.473438319335939 1.166364 L 13.06455931933594 1.166364 L 12.667083319335939 0.017919000000000018 L 13.00917331933594 0.017919000000000018 L 13.26981331933594 0.8470799999999999 L 13.52882431933594 0.017919000000000018 L 13.869285319335939 0.017919000000000018 M 14.304243432128908 0.2736719999999999 L 14.304243432128908 0.46100699999999994 L 14.670768432128908 0.46100699999999994 L 14.670768432128908 0.7037279999999999 L 14.304243432128908 0.7037279999999999 L 14.304243432128908 0.910611 L 14.719638432128908 0.910611 L 14.719638432128908 1.166364 L 13.984959432128909 1.166364 L 13.984959432128909 0.017919000000000018 L 14.719638432128908 0.017919000000000018 L 14.719638432128908 0.2736719999999999 L 14.304243432128908 0.2736719999999999 M 15.475451479980471 1.166364 L 15.247391479980472 0.7428239999999999 L 15.213182479980471 0.7428239999999999 L 15.213182479980471 1.166364 L 14.893898479980471 1.166364 L 14.893898479980471 0.017919000000000018 L 15.397259479980471 0.017919000000000018 Q 15.535724479980471 0.017919000000000018 15.63183547998047 0.06597450000000005 Q 15.72794647998047 0.11402999999999985 15.776816479980472 0.19792349999999992 Q 15.82568647998047 0.281817 15.82568647998047 0.386073 Q 15.82568647998047 0.503361 15.76134097998047 0.5921415 Q 15.69699547998047 0.680922 15.573191479980471 0.7183889999999999 L 15.83220247998047 1.166364 L 15.475451479980471 1.166364 M 15.213182479980471 0.524538 L 15.371195479980472 0.524538 Q 15.43635547998047 0.524538 15.468935479980471 0.493587 Q 15.50151547998047 0.46263599999999994 15.50151547998047 0.4039919999999999 Q 15.50151547998047 0.34860599999999997 15.46812097998047 0.31684049999999997 Q 15.43472647998047 0.28507499999999997 15.371195479980472 0.28507499999999997 L 15.213182479980471 0.28507499999999997 L 15.213182479980471 0.524538 M 16.005708479003907 1.1329695 Q 15.954394979003908 1.086543 15.954394979003908 1.014867 Q 15.954394979003908 0.9431909999999999 16.005708479003907 0.89595 Q 16.05702197900391 0.8487089999999999 16.14172997900391 0.8487089999999999 Q 16.22480897900391 0.8487089999999999 16.27612247900391 0.89595 Q 16.32743597900391 0.9431909999999999 16.32743597900391 1.014867 Q 16.32743597900391 1.084914 16.27612247900391 1.132155 Q 16.22480897900391 1.1793959999999999 16.14172997900391 1.1793959999999999 Q 16.05702197900391 1.1793959999999999 16.005708479003907 1.1329695 M 16.812919340332034 0.017919000000000018 L 16.812919340332034 1.166364 L 16.493635340332034 1.166364 L 16.493635340332034 0.017919000000000018 L 16.812919340332034 0.017919000000000018 M 17.26575429638672 1.1020185 Q 17.13054729638672 1.02627 17.05154079638672 0.8918774999999999 Q 16.97253429638672 0.757485 16.97253429638672 0.588069 Q 16.97253429638672 0.41865299999999994 17.05154079638672 0.2842604999999999 Q 17.13054729638672 0.1498679999999999 17.26575429638672 0.07493399999999983 Q 17.40096129638672 0 17.562232296386718 0 Q 17.725132296386718 0 17.85952479638672 0.07493399999999983 Q 17.99391729638672 0.1498679999999999 18.07210929638672 0.2842604999999999 Q 18.15030129638672 0.41865299999999994 18.15030129638672 0.588069 Q 18.15030129638672 0.757485 18.07210929638672 0.8918774999999999 Q 17.99391729638672 1.02627 17.858710296386718 1.1020185 Q 17.72350329638672 1.177767 17.562232296386718 1.177767 Q 17.40096129638672 1.177767 17.26575429638672 1.1020185 M 17.75526879638672 0.801468 Q 17.82613029638672 0.7216469999999999 17.82613029638672 0.588069 Q 17.82613029638672 0.451233 17.75526879638672 0.3722264999999999 Q 17.68440729638672 0.2932199999999999 17.562232296386718 0.2932199999999999 Q 17.438428296386718 0.2932199999999999 17.36838129638672 0.3722264999999999 Q 17.29833429638672 0.451233 17.29833429638672 0.588069 Q 17.29833429638672 0.723276 17.36838129638672 0.8022825 Q 17.438428296386718 0.881289 17.562232296386718 0.881289 Q 17.68440729638672 0.881289 17.75526879638672 0.801468" fill="#404040" fill-rule="nonzero"></path></g><g><path d=" M 5.7431363115234335 1.5652295999999994 L 5.7431363115234335 1.6946945999999996 L 5.4728663115234335 1.6946945999999996 L 5.4728663115234335 1.8345545999999995 L 5.675096311523434 1.8345545999999995 L 5.675096311523434 1.9602395999999995 L 5.4728663115234335 1.9602395999999995 L 5.4728663115234335 2.2286195999999996 L 5.311271311523433 2.2286195999999996 L 5.311271311523433 1.5652295999999994 L 5.7431363115234335 1.5652295999999994 M 6.195505042968746 2.2286195999999996 L 6.0575350429687465 1.9781945999999997 L 6.018790042968746 1.9781945999999997 L 6.018790042968746 2.2286195999999996 L 5.857195042968746 2.2286195999999996 L 5.857195042968746 1.5652295999999994 L 6.1284100429687465 1.5652295999999994 Q 6.206845042968746 1.5652295999999994 6.262127542968746 1.5926345999999996 Q 6.3174100429687465 1.6200395999999997 6.344815042968746 1.6677620999999996 Q 6.372220042968746 1.7154845999999995 6.372220042968746 1.7740745999999996 Q 6.372220042968746 1.8402245999999995 6.334892542968746 1.8921995999999996 Q 6.297565042968746 1.9441745999999995 6.224800042968746 1.9659095999999996 L 6.377890042968746 2.2286195999999996 L 6.195505042968746 2.2286195999999996 M 6.018790042968746 1.8638495999999996 L 6.118960042968746 1.8638495999999996 Q 6.163375042968746 1.8638495999999996 6.1855825429687465 1.8421145999999995 Q 6.207790042968746 1.8203795999999994 6.207790042968746 1.7806895999999997 Q 6.207790042968746 1.7428895999999996 6.1855825429687465 1.7211545999999995 Q 6.163375042968746 1.6994195999999997 6.118960042968746 1.6994195999999997 L 6.018790042968746 1.6994195999999997 L 6.018790042968746 1.8638495999999996 M 6.663920317382808 1.6946945999999996 L 6.663920317382808 1.8288845999999994 L 6.880325317382808 1.8288845999999994 L 6.880325317382808 1.9536245999999995 L 6.663920317382808 1.9536245999999995 L 6.663920317382808 2.0991545999999994 L 6.908675317382809 2.0991545999999994 L 6.908675317382809 2.2286195999999996 L 6.502325317382808 2.2286195999999996 L 6.502325317382808 1.5652295999999994 L 6.908675317382809 1.5652295999999994 L 6.908675317382809 1.6946945999999996 L 6.663920317382808 1.6946945999999996 M 7.204191583007808 1.6946945999999996 L 7.204191583007808 1.8288845999999994 L 7.420596583007808 1.8288845999999994 L 7.420596583007808 1.9536245999999995 L 7.204191583007808 1.9536245999999995 L 7.204191583007808 2.0991545999999994 L 7.4489465830078085 2.0991545999999994 L 7.4489465830078085 2.2286195999999996 L 7.042596583007808 2.2286195999999996 L 7.042596583007808 1.5652295999999994 L 7.4489465830078085 1.5652295999999994 L 7.4489465830078085 1.6946945999999996 L 7.204191583007808 1.6946945999999996 M 7.954418315917964 2.1917645999999995 Q 7.876455815917964 2.1482945999999994 7.830623315917965 2.0703320999999995 Q 7.784790815917964 1.9923695999999995 7.784790815917964 1.8950345999999996 Q 7.784790815917964 1.7976995999999996 7.830623315917965 1.7202095999999996 Q 7.876455815917964 1.6427195999999995 7.954418315917964 1.5992495999999994 Q 8.032380815917964 1.5557795999999995 8.125935815917964 1.5557795999999995 Q 8.219490815917965 1.5557795999999995 8.297453315917965 1.5992495999999994 Q 8.375415815917965 1.6427195999999995 8.420303315917964 1.7202095999999996 Q 8.465190815917964 1.7976995999999996 8.465190815917964 1.8950345999999996 Q 8.465190815917964 1.9923695999999995 8.419830815917965 2.0703320999999995 Q 8.374470815917965 2.1482945999999994 8.296980815917964 2.1917645999999995 Q 8.219490815917965 2.2352345999999996 8.125935815917964 2.2352345999999996 Q 8.032380815917964 2.2352345999999996 7.954418315917964 2.1917645999999995 M 8.253038315917964 2.0348945999999994 Q 8.300760815917965 1.9819745999999996 8.300760815917965 1.8950345999999996 Q 8.300760815917965 1.8071495999999996 8.253038315917964 1.7547020999999996 Q 8.205315815917965 1.7022545999999994 8.125935815917964 1.7022545999999994 Q 8.045610815917964 1.7022545999999994 7.997888315917964 1.7542295999999995 Q 7.9501658159179645 1.8062045999999996 7.9501658159179645 1.8950345999999996 Q 7.9501658159179645 1.9829195999999996 7.997888315917964 2.0353670999999998 Q 8.045610815917964 2.0878145999999997 8.125935815917964 2.0878145999999997 Q 8.205315815917965 2.0878145999999997 8.253038315917964 2.0348945999999994 M 9.177447467285152 2.2286195999999996 L 9.015852467285153 2.2286195999999996 L 8.745582467285153 1.8194345999999997 L 8.745582467285153 2.2286195999999996 L 8.583987467285153 2.2286195999999996 L 8.583987467285153 1.5652295999999994 L 8.745582467285153 1.5652295999999994 L 9.015852467285153 1.9763045999999995 L 9.015852467285153 1.5652295999999994 L 9.177447467285152 1.5652295999999994 L 9.177447467285152 2.2286195999999996 M 9.485247348632809 2.1038795999999995 L 9.696927348632808 2.1038795999999995 L 9.696927348632808 2.2286195999999996 L 9.323652348632809 2.2286195999999996 L 9.323652348632809 1.5652295999999994 L 9.485247348632809 1.5652295999999994 L 9.485247348632809 2.1038795999999995 M 9.965014158691403 1.5652295999999994 L 9.965014158691403 2.2286195999999996 L 9.803419158691403 2.2286195999999996 L 9.803419158691403 1.5652295999999994 L 9.965014158691403 1.5652295999999994 M 10.704649508789057 2.2286195999999996 L 10.543054508789059 2.2286195999999996 L 10.272784508789059 1.8194345999999997 L 10.272784508789059 2.2286195999999996 L 10.111189508789058 2.2286195999999996 L 10.111189508789058 1.5652295999999994 L 10.272784508789059 1.5652295999999994 L 10.543054508789059 1.9763045999999995 L 10.543054508789059 1.5652295999999994 L 10.704649508789057 1.5652295999999994 L 10.704649508789057 2.2286195999999996 M 11.012449390136714 1.6946945999999996 L 11.012449390136714 1.8288845999999994 L 11.228854390136714 1.8288845999999994 L 11.228854390136714 1.9536245999999995 L 11.012449390136714 1.9536245999999995 L 11.012449390136714 2.0991545999999994 L 11.257204390136714 2.0991545999999994 L 11.257204390136714 2.2286195999999996 L 10.850854390136714 2.2286195999999996 L 10.850854390136714 1.5652295999999994 L 11.257204390136714 1.5652295999999994 L 11.257204390136714 1.6946945999999996 L 11.012449390136714 1.6946945999999996 M 11.78204862304687 1.5652295999999994 L 11.78204862304687 2.2286195999999996 L 11.62045362304687 2.2286195999999996 L 11.62045362304687 1.5652295999999994 L 11.78204862304687 1.5652295999999994 M 12.679498973144527 1.5652295999999994 L 12.679498973144527 2.2286195999999996 L 12.517903973144527 2.2286195999999996 L 12.517903973144527 1.8307745999999996 L 12.369538973144527 2.2286195999999996 L 12.239128973144528 2.2286195999999996 L 12.089818973144528 1.8298295999999996 L 12.089818973144528 2.2286195999999996 L 11.928223973144528 2.2286195999999996 L 11.928223973144528 1.5652295999999994 L 12.119113973144527 1.5652295999999994 L 12.305278973144528 2.0244995999999995 L 12.489553973144528 1.5652295999999994 L 12.679498973144527 1.5652295999999994 M 13.237738620117184 2.1114395999999997 L 12.990148620117184 2.1114395999999997 L 12.950458620117184 2.2286195999999996 L 12.781303620117184 2.2286195999999996 L 13.021333620117185 1.5652295999999994 L 13.208443620117183 1.5652295999999994 L 13.448473620117184 2.2286195999999996 L 13.277428620117185 2.2286195999999996 L 13.237738620117184 2.1114395999999997 M 13.196158620117185 1.9866995999999997 L 13.113943620117183 1.7438345999999996 L 13.032673620117183 1.9866995999999997 L 13.196158620117185 1.9866995999999997 M 13.990619658691402 1.7750195999999996 Q 13.972664658691402 1.7419445999999996 13.939117158691403 1.7244620999999996 Q 13.905569658691402 1.7069795999999995 13.860209658691403 1.7069795999999995 Q 13.781774658691402 1.7069795999999995 13.734524658691402 1.7584820999999995 Q 13.687274658691402 1.8099845999999995 13.687274658691402 1.8959795999999995 Q 13.687274658691402 1.9876445999999997 13.736887158691403 2.0391470999999997 Q 13.786499658691403 2.0906495999999994 13.873439658691403 2.0906495999999994 Q 13.932974658691402 2.0906495999999994 13.974082158691402 2.0604095999999994 Q 14.015189658691401 2.0301696 14.034089658691402 1.9734695999999996 L 13.829024658691402 1.9734695999999996 L 13.829024658691402 1.8543995999999996 L 14.180564658691402 1.8543995999999996 L 14.180564658691402 2.0046545999999994 Q 14.162609658691402 2.0651345999999995 14.119612158691401 2.1171095999999996 Q 14.076614658691403 2.1690845999999997 14.010464658691403 2.2012145999999997 Q 13.944314658691402 2.2333445999999997 13.861154658691403 2.2333445999999997 Q 13.762874658691402 2.2333445999999997 13.685857158691402 2.1903470999999994 Q 13.608839658691402 2.1473495999999996 13.565842158691401 2.0708045999999998 Q 13.522844658691403 1.9942595999999995 13.522844658691403 1.8959795999999995 Q 13.522844658691403 1.7976995999999996 13.565842158691401 1.7206820999999994 Q 13.608839658691402 1.6436645999999997 13.685384658691403 1.6006670999999995 Q 13.761929658691402 1.5576695999999997 13.860209658691403 1.5576695999999997 Q 13.979279658691402 1.5576695999999997 14.061022158691403 1.6153145999999996 Q 14.142764658691402 1.6729595999999995 14.169224658691402 1.7750195999999996 L 13.990619658691402 1.7750195999999996 M 14.460968768554684 1.6946945999999996 L 14.460968768554684 1.8288845999999994 L 14.677373768554684 1.8288845999999994 L 14.677373768554684 1.9536245999999995 L 14.460968768554684 1.9536245999999995 L 14.460968768554684 2.0991545999999994 L 14.705723768554684 2.0991545999999994 L 14.705723768554684 2.2286195999999996 L 14.299373768554684 2.2286195999999996 L 14.299373768554684 1.5652295999999994 L 14.705723768554684 1.5652295999999994 L 14.705723768554684 1.6946945999999996 L 14.460968768554684 1.6946945999999996 M 15.54619800146484 1.5652295999999994 L 15.54619800146484 1.6946945999999996 L 15.37042800146484 1.6946945999999996 L 15.37042800146484 2.2286195999999996 L 15.20883300146484 2.2286195999999996 L 15.20883300146484 1.6946945999999996 L 15.03306300146484 1.6946945999999996 L 15.03306300146484 1.5652295999999994 L 15.54619800146484 1.5652295999999994 M 15.79870523144531 2.1917645999999995 Q 15.72074273144531 2.1482945999999994 15.67491023144531 2.0703320999999995 Q 15.62907773144531 1.9923695999999995 15.62907773144531 1.8950345999999996 Q 15.62907773144531 1.7976995999999996 15.67491023144531 1.7202095999999996 Q 15.72074273144531 1.6427195999999995 15.79870523144531 1.5992495999999994 Q 15.876667731445309 1.5557795999999995 15.97022273144531 1.5557795999999995 Q 16.06377773144531 1.5557795999999995 16.14174023144531 1.5992495999999994 Q 16.21970273144531 1.6427195999999995 16.26459023144531 1.7202095999999996 Q 16.30947773144531 1.7976995999999996 16.30947773144531 1.8950345999999996 Q 16.30947773144531 1.9923695999999995 16.26411773144531 2.0703320999999995 Q 16.218757731445308 2.1482945999999994 16.14126773144531 2.1917645999999995 Q 16.06377773144531 2.2352345999999996 15.97022273144531 2.2352345999999996 Q 15.876667731445309 2.2352345999999996 15.79870523144531 2.1917645999999995 M 16.09732523144531 2.0348945999999994 Q 16.14504773144531 1.9819745999999996 16.14504773144531 1.8950345999999996 Q 16.14504773144531 1.8071495999999996 16.09732523144531 1.7547020999999996 Q 16.049602731445308 1.7022545999999994 15.97022273144531 1.7022545999999994 Q 15.88989773144531 1.7022545999999994 15.84217523144531 1.7542295999999995 Q 15.79445273144531 1.8062045999999996 15.79445273144531 1.8950345999999996 Q 15.79445273144531 1.9829195999999996 15.84217523144531 2.0353670999999998 Q 15.88989773144531 2.0878145999999997 15.97022273144531 2.0878145999999997 Q 16.049602731445308 2.0878145999999997 16.09732523144531 2.0348945999999994 M 16.5704968828125 2.1917645999999995 Q 16.492534382812497 2.1482945999999994 16.446701882812498 2.0703320999999995 Q 16.4008693828125 1.9923695999999995 16.4008693828125 1.8950345999999996 Q 16.4008693828125 1.7976995999999996 16.446701882812498 1.7202095999999996 Q 16.492534382812497 1.6427195999999995 16.5704968828125 1.5992495999999994 Q 16.648459382812497 1.5557795999999995 16.7420143828125 1.5557795999999995 Q 16.835569382812498 1.5557795999999995 16.9135318828125 1.5992495999999994 Q 16.991494382812498 1.6427195999999995 17.0363818828125 1.7202095999999996 Q 17.081269382812497 1.7976995999999996 17.081269382812497 1.8950345999999996 Q 17.081269382812497 1.9923695999999995 17.0359093828125 2.0703320999999995 Q 16.990549382812496 2.1482945999999994 16.9130593828125 2.1917645999999995 Q 16.835569382812498 2.2352345999999996 16.7420143828125 2.2352345999999996 Q 16.648459382812497 2.2352345999999996 16.5704968828125 2.1917645999999995 M 16.8691168828125 2.0348945999999994 Q 16.916839382812498 1.9819745999999996 16.916839382812498 1.8950345999999996 Q 16.916839382812498 1.8071495999999996 16.8691168828125 1.7547020999999996 Q 16.821394382812496 1.7022545999999994 16.7420143828125 1.7022545999999994 Q 16.661689382812497 1.7022545999999994 16.6139668828125 1.7542295999999995 Q 16.5662443828125 1.8062045999999996 16.5662443828125 1.8950345999999996 Q 16.5662443828125 1.9829195999999996 16.6139668828125 2.0353670999999998 Q 16.661689382812497 2.0878145999999997 16.7420143828125 2.0878145999999997 Q 16.821394382812496 2.0878145999999997 16.8691168828125 2.0348945999999994 M 17.361661034179686 2.1038795999999995 L 17.573341034179684 2.1038795999999995 L 17.573341034179684 2.2286195999999996 L 17.200066034179684 2.2286195999999996 L 17.200066034179684 1.5652295999999994 L 17.361661034179686 1.5652295999999994 L 17.361661034179686 2.1038795999999995 M 17.789452844238276 2.2116095999999996 Q 17.73180784423828 2.1879845999999996 17.697315344238277 2.1416796 Q 17.662822844238278 2.0953745999999995 17.66093284423828 2.0301696 L 17.83292284423828 2.0301696 Q 17.83670284423828 2.0670245999999994 17.858437844238278 2.0863970999999997 Q 17.880172844238277 2.1057695999999995 17.915137844238277 2.1057695999999995 Q 17.95104784423828 2.1057695999999995 17.971837844238276 2.0892320999999994 Q 17.992627844238278 2.0726945999999997 17.992627844238278 2.0433995999999994 Q 17.992627844238278 2.0188295999999997 17.97609034423828 2.0027645999999995 Q 17.959552844238278 1.9866995999999997 17.935455344238278 1.9763045999999995 Q 17.911357844238278 1.9659095999999996 17.866942844238277 1.9526795999999995 Q 17.802682844238277 1.9328345999999996 17.76204784423828 1.9129895999999995 Q 17.721412844238277 1.8931445999999996 17.69211784423828 1.8543995999999996 Q 17.662822844238278 1.8156545999999996 17.662822844238278 1.7532845999999995 Q 17.662822844238278 1.6606745999999997 17.72991784423828 1.6082270999999997 Q 17.797012844238278 1.5557795999999995 17.904742844238278 1.5557795999999995 Q 18.014362844238278 1.5557795999999995 18.08145784423828 1.6082270999999997 Q 18.148552844238278 1.6606745999999997 18.15327784423828 1.7542295999999995 L 17.978452844238276 1.7542295999999995 Q 17.976562844238277 1.7220995999999995 17.954827844238277 1.7036720999999995 Q 17.933092844238278 1.6852445999999994 17.89907284423828 1.6852445999999994 Q 17.86977784423828 1.6852445999999994 17.851822844238278 1.7008370999999995 Q 17.833867844238277 1.7164295999999997 17.833867844238277 1.7457245999999995 Q 17.833867844238277 1.7778545999999995 17.864107844238276 1.7958095999999997 Q 17.89434784423828 1.8137645999999996 17.958607844238276 1.8345545999999995 Q 18.022867844238277 1.8562895999999995 18.06303034423828 1.8761345999999994 Q 18.10319284423828 1.8959795999999995 18.132487844238277 1.9337795999999996 Q 18.161782844238278 1.9715795999999997 18.161782844238278 2.0311145999999995 Q 18.161782844238278 2.0878145999999997 18.132960344238278 2.1341195999999996 Q 18.104137844238277 2.1804245999999994 18.049327844238277 2.2078295999999997 Q 17.994517844238278 2.2352345999999996 17.919862844238278 2.2352345999999996 Q 17.847097844238277 2.2352345999999996 17.789452844238276 2.2116095999999996" fill="#404040" fill-rule="nonzero"></path></g><g clip-path="url(&quot;#SvgjsClipPath1002&quot;)"><g clip-path="url(&quot;#SvgjsClipPath10001321411d-d585-4cef-924d-8e8de68cfe27&quot;)"><path d=" M 20.93646839041773 2.2438562533367636 L 18.677375483744203 2.2438562533367636 L 18.677375483744203 -0.015236653336763162 L 20.93643525843928 -0.015236653336763162 Z M 20.539392672677966 1.5660422381907333 L 20.737963663526298 1.764580097060615 L 20.737963663526298 0.18327911754748707 L 18.875946474592535 0.18327911754748707 L 18.875946474592535 2.0452963064812475 L 20.737963663526298 2.0452963064812475 L 19.947346305748184 1.2546458167246828 L 19.355222630868685 1.8468026235826334 L 19.074484333462422 1.8468026235826334 L 19.074484333462422 0.3818169764173703 L 20.539392672677966 0.3818169764173703 Z" fill="#404040" transform="matrix(1,0,0,1,0,0)" fill-rule="evenodd"></path></g></g></g><defs><clipPath id="SvgjsClipPath1002"><path d=" M 18.677408615722655 -0.015236653336763162 h 2.259059774695075 v 2.259092906673526 h -2.259059774695075 Z"></path></clipPath><clipPath id="SvgjsClipPath10001321411d-d585-4cef-924d-8e8de68cfe27"><path d=" M 18.677408615722655 -0.015236653336763162 L 20.93646839041773 -0.015236653336763162 L 20.93646839041773 2.2438562533367628 L 18.677408615722655 2.2438562533367628 Z"></path></clipPath></defs></svg>